<svg width="11.299744" height="7.921387" viewBox="0 0 11.2997 7.92139" fill="none" xmlns="http://www.w3.org/2000/svg" xmlns:xlink="http://www.w3.org/1999/xlink">
	<desc>
			Created with Pixso.
	</desc>
	<defs/>
	<path id="Arrow 1" d="M9.86 3.96L6.91 1.01C6.68 0.78 6.68 0.41 6.91 0.17C7.15 -0.06 7.52 -0.06 7.75 0.17L11.12 3.54C11.35 3.77 11.35 4.14 11.12 4.38L7.75 7.74C7.52 7.98 7.15 7.98 6.91 7.74C6.68 7.5 6.68 7.13 6.91 6.9L9.86 3.96Z" fill="#FFFFFF" fill-opacity="1.000000" fill-rule="nonzero"/>
	<path id="Arrow 1" d="M9.26 3.36L6.91 1.01C6.68 0.78 6.68 0.41 6.91 0.17C7.15 -0.06 7.52 -0.06 7.75 0.17L11.12 3.54C11.35 3.77 11.35 4.14 11.12 4.38L7.75 7.74C7.52 7.98 7.15 7.98 6.91 7.74C6.68 7.5 6.68 7.13 6.91 6.9L9.26 4.55L0 4.55L0 3.36L9.26 3.36Z" fill="#FF7D01" fill-opacity="1.000000" fill-rule="evenodd"/>
</svg>
