<svg width="11.299713" height="7.921387" viewBox="0 0 11.2997 7.92139" fill="none" xmlns="http://www.w3.org/2000/svg" xmlns:xlink="http://www.w3.org/1999/xlink">
	<desc>
			Created with Pixso.
	</desc>
	<defs/>
	<path id="Arrow 1" d="M1.43 3.96L4.38 1.01C4.61 0.78 4.61 0.41 4.38 0.17C4.14 -0.06 3.77 -0.06 3.54 0.17L0.17 3.54C-0.06 3.77 -0.06 4.14 0.17 4.38L3.54 7.74C3.77 7.98 4.14 7.98 4.38 7.74C4.61 7.5 4.61 7.13 4.38 6.9L1.43 3.96Z" fill="#FBFBFB" fill-opacity="1.000000" fill-rule="nonzero"/>
	<path id="Arrow 1" d="M2.03 4.55L11.29 4.55L11.29 3.36L2.03 3.36L4.38 1.01C4.61 0.78 4.61 0.41 4.38 0.17C4.14 -0.06 3.77 -0.06 3.54 0.17L0.17 3.54C-0.06 3.77 -0.06 4.14 0.17 4.38L3.54 7.74C3.77 7.98 4.14 7.98 4.38 7.74C4.61 7.5 4.61 7.13 4.38 6.9L2.03 4.55Z" fill="#FF7D01" fill-opacity="1.000000" fill-rule="evenodd"/>
</svg>
