<svg width="6.660950" height="11.501953" viewBox="0 0 6.66095 11.502" fill="none" xmlns="http://www.w3.org/2000/svg" xmlns:xlink="http://www.w3.org/1999/xlink">
	<desc>
			Created with Pixso.
	</desc>
	<defs/>
	<path id="Arrow 1" d="M3.33 10.29L5.8 7.81C6 7.62 6.31 7.62 6.51 7.81C6.71 8.01 6.71 8.32 6.51 8.52L3.68 11.35C3.48 11.55 3.17 11.55 2.97 11.35L0.14 8.52C-0.05 8.32 -0.05 8.01 0.14 7.81C0.34 7.62 0.65 7.62 0.85 7.81L3.33 10.29Z" fill="#FF7D01" fill-opacity="1.000000" fill-rule="nonzero"/>
	<path id="Arrow 1" d="M3.83 9.79L5.8 7.81C6 7.62 6.31 7.62 6.51 7.81C6.71 8.01 6.71 8.32 6.51 8.52L3.68 11.35C3.48 11.55 3.17 11.55 2.97 11.35L0.14 8.52C-0.05 8.32 -0.05 8.01 0.14 7.81C0.34 7.62 0.65 7.62 0.85 7.81L2.83 9.79L2.83 0L3.83 0L3.83 9.79Z" fill="#FF7D01" fill-opacity="1.000000" fill-rule="evenodd"/>
</svg>
