<svg width="32.000000" height="32.000000" viewBox="0 0 32 32" fill="none" xmlns="http://www.w3.org/2000/svg" xmlns:xlink="http://www.w3.org/1999/xlink">
	<desc>
			Created with Pixso.
	</desc>
	<defs>
		<clipPath id="clip1_1648">
			<rect id="solar:cart-bold-duotone" width="32.000000" height="32.000000" fill="white" fill-opacity="0"/>
		</clipPath>
	</defs>
	<rect id="solar:cart-bold-duotone" width="32.000000" height="32.000000" fill="#FFFFFF" fill-opacity="0"/>
	<g clip-path="url(#clip1_1648)">
		<g opacity="0.500000">
			<path id="Vector" d="M13.36 2.66C12.74 2.66 12.15 2.91 11.71 3.35C11.27 3.78 11.03 4.38 11.03 5C11.03 5.61 11.27 6.21 11.71 6.64C12.15 7.08 12.74 7.33 13.36 7.33L18.69 7.33C19.31 7.33 19.9 7.08 20.34 6.64C20.78 6.21 21.03 5.61 21.03 5C21.03 4.38 20.78 3.78 20.34 3.35C19.9 2.91 19.31 2.66 18.69 2.66L13.36 2.66ZM5.18 21.6C4.03 17.03 3.46 14.74 4.66 13.2C5.86 11.66 8.22 11.66 12.94 11.66L19.11 11.66C23.83 11.66 26.19 11.66 27.39 13.2C28.59 14.74 28.02 17.03 26.87 21.6C26.15 24.51 25.78 25.97 24.7 26.81C23.61 27.66 22.11 27.66 19.11 27.66L12.94 27.66C9.94 27.66 8.44 27.66 7.35 26.81C6.27 25.97 5.9 24.51 5.18 21.6Z" fill="#FF7D01" fill-opacity="1.000000" fill-rule="nonzero"/>
		</g>
		<path id="Vector" d="M20.8 6C20.95 5.69 21.03 5.34 21.03 5C21.03 4.65 20.95 4.31 20.8 4C21.71 4 22.42 4.04 23.06 4.29C23.82 4.59 24.47 5.09 24.96 5.75C25.45 6.4 25.68 7.25 26 8.41L26.06 8.64L26.74 12.59C26.2 12.21 25.49 11.99 24.58 11.86L24.1 9.07C23.72 7.69 23.59 7.25 23.35 6.94C23.09 6.59 22.74 6.31 22.33 6.16C22.04 6.04 21.68 6.01 20.8 6ZM11.25 4C11.1 4.31 11.02 4.65 11.02 5C11.03 5.34 11.1 5.69 11.25 6C10.37 6.01 10.02 6.04 9.72 6.16C9.32 6.31 8.96 6.59 8.7 6.94C8.47 7.25 8.33 7.69 7.95 9.07L7.47 11.86C6.56 11.99 5.86 12.21 5.31 12.59L6 8.64L6.06 8.41C6.37 7.25 6.6 6.4 7.09 5.74C7.58 5.09 8.24 4.59 9 4.29C9.63 4.05 10.34 4 11.25 4L11.25 4Z" fill="#FF7D01" fill-opacity="1.000000" fill-rule="nonzero"/>
	</g>
</svg>
