<svg width="40.000000" height="40.000000" viewBox="0 0 40 40" fill="none" xmlns="http://www.w3.org/2000/svg" xmlns:xlink="http://www.w3.org/1999/xlink">
	<desc>
			Created with Pixso.
	</desc>
	<defs>
		<clipPath id="clip1_17">
			<rect id="ri:facebook-fill" width="24.000000" height="24.000000" transform="translate(8.000000 8.000000)" fill="white" fill-opacity="0"/>
		</clipPath>
	</defs>
	<rect id="ri:facebook-fill" width="24.000000" height="24.000000" transform="translate(8.000000 8.000000)" fill="#FFFFFF" fill-opacity="0"/>
	<g clip-path="url(#clip1_17)">
		<path id="Vector" d="M21.6 21.2L23.6 21.2L24.4 18L21.6 18L21.6 16.39C21.6 15.57 21.6 14.8 23.2 14.8L24.4 14.8L24.4 12.11C24.13 12.07 23.15 12 22.11 12C19.94 12 18.4 13.32 18.4 15.76L18.4 18L16 18L16 21.2L18.4 21.2L18.4 28L21.6 28L21.6 21.2Z" fill="#FF7D01" fill-opacity="1.000000" fill-rule="nonzero"/>
	</g>
	<rect id="Frame 4" rx="19.500000" width="39.000000" height="39.000000" transform="translate(0.500000 0.500000)" stroke="#DDDDDD" stroke-opacity="1.000000" stroke-width="1.000000"/>
</svg>
