<svg width="20.000000" height="20.000000" viewBox="0 0 20 20" fill="none" xmlns="http://www.w3.org/2000/svg" xmlns:xlink="http://www.w3.org/1999/xlink">
	<desc>
			Created with Pixso.
	</desc>
	<defs>
		<clipPath id="clip1_1614">
			<rect id="ant-design:heart-twotone" width="20.000000" height="20.000000" fill="white" fill-opacity="0"/>
		</clipPath>
	</defs>
	<rect id="ant-design:heart-twotone" width="20.000000" height="20.000000" fill="#FFFFFF" fill-opacity="0"/>
	<g clip-path="url(#clip1_1614)">
		<path id="Vector" d="M18.02 5.53C17.76 4.93 17.38 4.38 16.91 3.92C16.44 3.45 15.88 3.09 15.27 2.83C14.64 2.57 13.96 2.43 13.27 2.44C12.31 2.44 11.37 2.7 10.55 3.2C10.36 3.32 10.17 3.45 10 3.59C9.82 3.45 9.63 3.32 9.44 3.2C8.62 2.7 7.68 2.44 6.72 2.44C6.03 2.44 5.35 2.57 4.72 2.83C4.11 3.09 3.55 3.45 3.08 3.92C2.61 4.38 2.23 4.93 1.97 5.53C1.7 6.16 1.56 6.83 1.56 7.52C1.56 8.17 1.69 8.85 1.95 9.54C2.17 10.12 2.49 10.72 2.9 11.32C3.54 12.27 4.42 13.27 5.51 14.28C7.32 15.95 9.12 17.11 9.19 17.16L9.66 17.45C9.86 17.58 10.13 17.58 10.33 17.45L10.79 17.16C10.87 17.11 12.66 15.95 14.48 14.28C15.57 13.27 16.45 12.27 17.09 11.32C17.5 10.72 17.82 10.12 18.03 9.54C18.3 8.85 18.43 8.17 18.43 7.52C18.43 6.83 18.29 6.16 18.02 5.53ZM10 15.91C10 15.91 3.04 11.45 3.04 7.52C3.04 5.53 4.69 3.92 6.72 3.92C8.15 3.92 9.39 4.72 10 5.88C10.6 4.72 11.84 3.92 13.27 3.92C15.3 3.92 16.95 5.53 16.95 7.52C16.95 11.45 10 15.91 10 15.91Z" fill="#1D1D1D" fill-opacity="1.000000" fill-rule="nonzero"/>
		<path id="Vector" d="M13.27 3.92C11.84 3.92 10.6 4.72 10 5.88C9.39 4.72 8.15 3.92 6.72 3.92C4.69 3.92 3.04 5.53 3.04 7.52C3.04 11.45 10 15.91 10 15.91C10 15.91 16.95 11.45 16.95 7.52C16.95 5.53 15.3 3.92 13.27 3.92Z" fill="#535353" fill-opacity="0.200000" fill-rule="nonzero"/>
	</g>
</svg>
