<svg width="40.000000" height="40.000000" viewBox="0 0 40 40" fill="none" xmlns="http://www.w3.org/2000/svg" xmlns:xlink="http://www.w3.org/1999/xlink">
	<desc>
			Created with Pixso.
	</desc>
	<defs>
		<clipPath id="clip1_20">
			<rect id="ri:instagram-fill" width="24.000000" height="24.000000" transform="translate(8.000000 8.000000)" fill="white" fill-opacity="0"/>
		</clipPath>
	</defs>
	<rect id="ri:instagram-fill" width="24.000000" height="24.000000" transform="translate(8.000000 8.000000)" fill="#FFFFFF" fill-opacity="0"/>
	<g clip-path="url(#clip1_20)">
		<path id="Vector" d="M20.27 12C20.81 11.99 21.36 12 21.91 12.01L22.05 12.02C22.22 12.02 22.39 12.03 22.59 12.04C23.39 12.08 23.93 12.2 24.41 12.39C24.9 12.58 25.32 12.84 25.74 13.25C26.12 13.63 26.41 14.08 26.6 14.58C26.79 15.06 26.91 15.61 26.95 16.4C26.96 16.6 26.97 16.77 26.97 16.94L26.98 17.08C26.99 17.63 27 18.18 26.99 18.72L27 19.28L27 20.27C27 20.81 26.99 21.36 26.98 21.91L26.97 22.05C26.97 22.22 26.96 22.39 26.95 22.59C26.91 23.39 26.79 23.93 26.6 24.41C26.41 24.91 26.12 25.36 25.74 25.74C25.36 26.12 24.91 26.41 24.41 26.6C23.93 26.79 23.39 26.91 22.59 26.95C22.39 26.96 22.22 26.97 22.05 26.97L21.91 26.98C21.36 26.99 20.81 27 20.27 26.99L19.71 27L18.73 27C18.18 27 17.63 26.99 17.08 26.98L16.94 26.97C16.76 26.97 16.58 26.96 16.4 26.95C15.61 26.91 15.06 26.79 14.58 26.6C14.08 26.41 13.63 26.12 13.25 25.74C12.87 25.36 12.58 24.91 12.39 24.41C12.2 23.93 12.08 23.39 12.04 22.59C12.03 22.41 12.02 22.23 12.02 22.05L12.01 21.91C12 21.36 11.99 20.81 12 20.27L12 18.72C11.99 18.18 12 17.63 12.01 17.08L12.02 16.94C12.02 16.77 12.03 16.6 12.04 16.4C12.08 15.6 12.2 15.06 12.39 14.58C12.58 14.08 12.87 13.63 13.26 13.26C13.63 12.87 14.08 12.58 14.58 12.39C15.06 12.2 15.61 12.08 16.4 12.04L16.94 12.02L17.08 12.01C17.63 12 18.18 11.99 18.72 12L20.27 12ZM19.5 15.75C19 15.74 18.51 15.83 18.04 16.02C17.58 16.2 17.16 16.48 16.81 16.83C16.46 17.17 16.17 17.59 15.98 18.05C15.79 18.51 15.69 19 15.69 19.5C15.69 19.99 15.79 20.48 15.98 20.94C16.17 21.4 16.46 21.82 16.81 22.17C17.16 22.51 17.58 22.79 18.04 22.98C18.51 23.16 19 23.25 19.5 23.25C20.49 23.25 21.44 22.85 22.15 22.15C22.85 21.44 23.25 20.49 23.25 19.5C23.25 18.5 22.85 17.55 22.15 16.84C21.44 16.14 20.49 15.75 19.5 15.75ZM19.5 17.25C19.79 17.24 20.09 17.29 20.37 17.41C20.65 17.52 20.9 17.68 21.11 17.89C21.33 18.1 21.5 18.35 21.61 18.62C21.73 18.9 21.79 19.2 21.79 19.5C21.79 19.79 21.73 20.09 21.61 20.37C21.5 20.64 21.33 20.89 21.11 21.1C20.9 21.31 20.65 21.48 20.37 21.59C20.09 21.7 19.79 21.75 19.5 21.75C18.9 21.75 18.33 21.51 17.91 21.09C17.48 20.66 17.25 20.09 17.25 19.5C17.25 18.9 17.48 18.33 17.91 17.9C18.33 17.48 18.9 17.25 19.5 17.25L19.5 17.25ZM23.43 14.62C23.19 14.63 22.96 14.73 22.79 14.91C22.63 15.08 22.53 15.32 22.53 15.56C22.53 15.8 22.63 16.03 22.79 16.21C22.96 16.38 23.19 16.48 23.43 16.49C23.68 16.49 23.92 16.4 24.1 16.22C24.27 16.04 24.37 15.81 24.37 15.56C24.37 15.31 24.27 15.07 24.1 14.89C23.92 14.72 23.68 14.62 23.43 14.62L23.43 14.62Z" fill="#FF7D01" fill-opacity="1.000000" fill-rule="nonzero"/>
	</g>
	<rect id="Frame 3" rx="19.500000" width="39.000000" height="39.000000" transform="translate(0.500000 0.500000)" stroke="#DDDDDD" stroke-opacity="1.000000" stroke-width="1.000000"/>
</svg>
