<svg width="40.000000" height="40.000000" viewBox="0 0 40 40" fill="none" xmlns="http://www.w3.org/2000/svg" xmlns:xlink="http://www.w3.org/1999/xlink">
	<desc>
			Created with Pixso.
	</desc>
	<defs/>
	<path id="Vector" d="M15.64 13.49C15.64 13.9 15.48 14.3 15.18 14.6C14.89 14.89 14.49 15.06 14.07 15.06C13.65 15.06 13.25 14.89 12.96 14.6C12.66 14.3 12.49 13.9 12.5 13.49C12.5 13.07 12.66 12.67 12.96 12.37C13.25 12.08 13.65 11.91 14.07 11.91C14.49 11.91 14.89 12.08 15.18 12.37C15.48 12.67 15.64 13.07 15.64 13.49ZM15.69 16.23L12.54 16.23L12.54 26.08L15.69 26.08L15.69 16.23ZM20.66 16.23L17.53 16.23L17.53 26.08L20.63 26.08L20.63 20.91C20.63 18.03 24.39 17.76 24.39 20.91L24.39 26.08L27.5 26.08L27.5 19.84C27.5 14.98 21.94 15.16 20.63 17.55L20.66 16.23Z" fill="#FF7D01" fill-opacity="1.000000" fill-rule="nonzero"/>
	<rect id="Frame 6" rx="19.500000" width="39.000000" height="39.000000" transform="translate(0.500000 0.500000)" stroke="#DDDDDD" stroke-opacity="1.000000" stroke-width="1.000000"/>
</svg>
