<svg width="32.000000" height="32.000000" viewBox="0 0 32 32" fill="none" xmlns="http://www.w3.org/2000/svg" xmlns:xlink="http://www.w3.org/1999/xlink">
	<desc>
			Created with Pixso.
	</desc>
	<defs>
		<clipPath id="clip1_3644">
			<rect id="ic:round-menu" width="32.000000" height="32.000000" fill="white" fill-opacity="0"/>
		</clipPath>
	</defs>
	<rect id="ic:round-menu" width="32.000000" height="32.000000" fill="#FFFFFF" fill-opacity="0"/>
	<g clip-path="url(#clip1_3644)">
		<path id="Vector" d="M5.33 24L26.66 24C27.4 24 28 23.39 28 22.66C28 21.93 27.4 21.33 26.66 21.33L5.33 21.33C4.59 21.33 4 21.93 4 22.66C4 23.39 4.59 24 5.33 24ZM5.33 17.33L26.66 17.33C27.4 17.33 28 16.73 28 16C28 15.26 27.4 14.66 26.66 14.66L5.33 14.66C4.59 14.66 4 15.26 4 16C4 16.73 4.59 17.33 5.33 17.33ZM4 9.33C4 10.06 4.59 10.66 5.33 10.66L26.66 10.66C27.4 10.66 28 10.06 28 9.33C28 8.6 27.4 8 26.66 8L5.33 8C4.59 8 4 8.6 4 9.33Z" fill="#1B1B1B" fill-opacity="1.000000" fill-rule="nonzero"/>
		<path id="Vector" d="M4 9.33C4 10.06 4.59 10.66 5.33 10.66L26.66 10.66C27.4 10.66 28 10.06 28 9.33C28 8.6 27.4 8 26.66 8L5.33 8C4.59 8 4 8.6 4 9.33ZM26.66 10.46L5.33 10.46Q5.21 10.46 5.09 10.44Q4.99 10.41 4.89 10.37Q4.8 10.33 4.72 10.28Q4.62 10.22 4.53 10.13Q4.44 10.04 4.38 9.94Q4.32 9.86 4.28 9.77Q4.24 9.67 4.22 9.56Q4.19 9.45 4.19 9.33Q4.19 9.21 4.22 9.09Q4.24 8.99 4.28 8.89Q4.32 8.8 4.38 8.72Q4.44 8.62 4.53 8.53Q4.62 8.44 4.72 8.38Q4.8 8.32 4.89 8.28Q4.99 8.24 5.09 8.22Q5.21 8.2 5.33 8.2L26.66 8.2Q26.78 8.2 26.9 8.22Q27 8.24 27.1 8.28Q27.19 8.32 27.27 8.38Q27.37 8.44 27.46 8.53Q27.55 8.62 27.61 8.72Q27.67 8.8 27.71 8.89Q27.75 8.99 27.77 9.09Q27.8 9.21 27.8 9.33Q27.8 9.45 27.77 9.56Q27.75 9.67 27.71 9.77Q27.67 9.86 27.61 9.94Q27.55 10.04 27.46 10.13Q27.37 10.22 27.27 10.28Q27.19 10.33 27.1 10.37Q27 10.41 26.9 10.44Q26.78 10.46 26.66 10.46ZM5.33 17.33L26.66 17.33C27.4 17.33 28 16.73 28 16C28 15.26 27.4 14.66 26.66 14.66L5.33 14.66C4.59 14.66 4 15.26 4 16C4 16.73 4.59 17.33 5.33 17.33ZM26.9 17.1Q26.78 17.13 26.66 17.13L5.33 17.13Q5.21 17.13 5.09 17.1Q4.99 17.08 4.89 17.04Q4.8 17 4.72 16.95Q4.62 16.88 4.53 16.8Q4.44 16.71 4.38 16.61Q4.32 16.53 4.28 16.43Q4.24 16.34 4.22 16.23Q4.19 16.12 4.19 16Q4.19 15.87 4.22 15.76Q4.24 15.65 4.28 15.56Q4.32 15.46 4.38 15.38Q4.44 15.28 4.53 15.19Q4.62 15.11 4.72 15.04Q4.8 14.99 4.89 14.95Q4.99 14.91 5.09 14.89Q5.21 14.86 5.33 14.86L26.66 14.86Q26.78 14.86 26.9 14.89Q27 14.91 27.1 14.95Q27.19 14.99 27.27 15.04Q27.37 15.11 27.46 15.19Q27.55 15.28 27.61 15.38Q27.67 15.46 27.71 15.56Q27.75 15.65 27.77 15.76Q27.8 15.87 27.8 16Q27.8 16.12 27.77 16.23Q27.75 16.34 27.71 16.43Q27.67 16.53 27.61 16.61Q27.55 16.71 27.46 16.8Q27.37 16.88 27.27 16.95Q27.19 17 27.1 17.04Q27 17.08 26.9 17.1ZM5.33 24L26.66 24C27.4 24 28 23.39 28 22.66C28 21.93 27.4 21.33 26.66 21.33L5.33 21.33C4.59 21.33 4 21.93 4 22.66C4 23.39 4.59 24 5.33 24ZM26.9 23.77Q26.78 23.79 26.66 23.79L5.33 23.79Q5.21 23.79 5.09 23.77Q4.99 23.75 4.89 23.71Q4.8 23.67 4.72 23.61Q4.62 23.55 4.53 23.46Q4.44 23.37 4.38 23.27Q4.32 23.19 4.28 23.1Q4.24 23 4.22 22.9Q4.19 22.78 4.19 22.66Q4.19 22.54 4.22 22.43Q4.24 22.32 4.28 22.22Q4.32 22.13 4.38 22.05Q4.44 21.95 4.53 21.86Q4.62 21.77 4.72 21.71Q4.8 21.66 4.89 21.62Q4.99 21.58 5.09 21.55Q5.21 21.53 5.33 21.53L26.66 21.53Q26.78 21.53 26.9 21.55Q27 21.58 27.1 21.62Q27.19 21.66 27.27 21.71Q27.37 21.77 27.46 21.86Q27.55 21.95 27.61 22.05Q27.67 22.13 27.71 22.22Q27.75 22.32 27.77 22.43Q27.8 22.54 27.8 22.66Q27.8 22.78 27.77 22.9Q27.75 23 27.71 23.1Q27.67 23.19 27.61 23.27Q27.55 23.37 27.46 23.46Q27.37 23.55 27.27 23.61Q27.19 23.67 27.1 23.71Q27 23.75 26.9 23.77Z" fill="#EEEEEE" fill-opacity="1.000000" fill-rule="evenodd"/>
	</g>
</svg>
