<svg width="45.000000" height="45.000000" viewBox="0 0 45 45" fill="none" xmlns="http://www.w3.org/2000/svg" xmlns:xlink="http://www.w3.org/1999/xlink">
	<desc>
			Created with Pixso.
	</desc>
	<defs>
		<clipPath id="clip1_1637">
			<rect id="el:phone" width="17.142857" height="17.142857" transform="translate(13.928589 13.928711)" fill="white" fill-opacity="0"/>
		</clipPath>
	</defs>
	<rect id="callback" width="45.000000" height="45.000000" fill="#FFFFFF" fill-opacity="0"/>
	<circle id="ring" cx="22.500000" cy="22.500000" r="22.000000" stroke="#F2F2F2" stroke-opacity="1.000000" stroke-width="1.000000"/>
	<rect id="el:phone" width="17.142857" height="17.142857" transform="translate(13.928589 13.928711)" fill="#FFFFFF" fill-opacity="0"/>
	<g clip-path="url(#clip1_1637)">
		<path id="Vector" d="M30.83 28.18L28.41 30.58C28.05 30.94 27.58 31.07 27.12 31.07C25.08 31.01 23.16 30.01 21.58 28.98C18.98 27.09 16.6 24.75 15.11 21.92C14.54 20.74 13.86 19.22 13.93 17.9C13.93 17.4 14.07 16.91 14.42 16.59L16.84 14.17C17.34 13.75 17.82 13.9 18.14 14.39L20.09 18.08C20.29 18.52 20.18 18.98 19.87 19.3L18.98 20.19C18.92 20.26 18.89 20.35 18.89 20.44C19.23 21.76 20.26 22.98 21.18 23.82C22.09 24.66 23.07 25.79 24.35 26.06C24.51 26.11 24.7 26.12 24.81 26.02L25.85 24.96C26.21 24.69 26.72 24.56 27.1 24.78L27.12 24.78L30.63 26.85C31.14 27.18 31.2 27.8 30.83 28.18Z" fill="#FF7D01" fill-opacity="1.000000" fill-rule="nonzero"/>
	</g>
</svg>
