<svg width="20.000000" height="20.000000" viewBox="0 0 20 20" fill="none" xmlns="http://www.w3.org/2000/svg" xmlns:xlink="http://www.w3.org/1999/xlink">
	<desc>
			Created with Pixso.
	</desc>
	<defs>
		<clipPath id="clip1_1620">
			<rect id="ph:scales-duotone" width="20.000000" height="20.000000" fill="white" fill-opacity="0"/>
		</clipPath>
	</defs>
	<rect id="ph:scales-duotone" width="20.000000" height="20.000000" fill="#FFFFFF" fill-opacity="0"/>
	<g clip-path="url(#clip1_1620)">
		<g opacity="0.200000">
			<path id="Vector" d="M4.37 6.87L6.87 13.12C6.87 14.5 5.31 15 4.37 15C3.43 15 1.87 14.5 1.87 13.12L4.37 6.87ZM15.62 4.37L13.12 10.62C13.12 12 14.68 12.5 15.62 12.5C16.56 12.5 18.12 12 18.12 10.62L15.62 4.37Z" fill="#1D1D1D" fill-opacity="1.000000" fill-rule="nonzero"/>
		</g>
		<path id="Vector" d="M18.7 10.39L16.2 4.14C16.15 4 16.04 3.88 15.91 3.82C15.78 3.75 15.63 3.73 15.48 3.76L10.62 4.84L10.62 3.12C10.62 2.95 10.55 2.8 10.44 2.68C10.32 2.56 10.16 2.5 10 2.5C9.83 2.5 9.67 2.56 9.55 2.68C9.44 2.8 9.37 2.95 9.37 3.12L9.37 5.12L4.23 6.26C4.14 6.28 4.04 6.33 3.97 6.39C3.89 6.46 3.83 6.54 3.79 6.64L3.79 6.64L1.29 12.89C1.26 12.96 1.24 13.04 1.25 13.12C1.25 14.94 3.16 15.62 4.37 15.62C5.58 15.62 7.5 14.94 7.5 13.12C7.5 13.04 7.48 12.96 7.45 12.89L5.22 7.32L9.37 6.4L9.37 16.25L8.12 16.25C7.95 16.25 7.8 16.31 7.68 16.43C7.56 16.55 7.5 16.7 7.5 16.87C7.5 17.04 7.56 17.19 7.68 17.31C7.8 17.43 7.95 17.5 8.12 17.5L11.87 17.5C12.04 17.5 12.19 17.43 12.31 17.31C12.43 17.19 12.5 17.04 12.5 16.87C12.5 16.7 12.43 16.55 12.31 16.43C12.19 16.31 12.04 16.25 11.87 16.25L10.62 16.25L10.62 6.12L14.6 5.24L12.54 10.39C12.51 10.46 12.49 10.54 12.5 10.62C12.5 12.44 14.41 13.12 15.62 13.12C16.83 13.12 18.75 12.44 18.75 10.62C18.75 10.54 18.73 10.46 18.7 10.39ZM4.37 14.37C3.78 14.37 2.59 14.09 2.5 13.23L4.37 8.55L6.24 13.23C6.15 14.09 4.96 14.37 4.37 14.37ZM15.62 11.87C15.03 11.87 13.84 11.59 13.75 10.73L15.62 6.05L17.49 10.73C17.4 11.59 16.21 11.87 15.62 11.87Z" fill="#1D1D1D" fill-opacity="1.000000" fill-rule="nonzero"/>
	</g>
</svg>
