<svg width="22.000000" height="22.000000" viewBox="0 0 22 22" fill="none" xmlns="http://www.w3.org/2000/svg" xmlns:xlink="http://www.w3.org/1999/xlink">
	<desc>
			Created with Pixso.
	</desc>
	<defs>
		<clipPath id="clip1_1632">
			<rect id="heroicons:magnifying-glass-16-solid" width="22.000000" height="22.000000" fill="white" fill-opacity="0"/>
		</clipPath>
	</defs>
	<rect id="heroicons:magnifying-glass-16-solid" width="22.000000" height="22.000000" fill="#FFFFFF" fill-opacity="0"/>
	<g clip-path="url(#clip1_1632)">
		<path id="Vector" d="M13.7 15.16C12.3 16.18 10.57 16.65 8.85 16.45C7.12 16.26 5.54 15.42 4.41 14.1C3.28 12.79 2.68 11.09 2.75 9.36C2.81 7.63 3.53 5.99 4.76 4.76C5.98 3.53 7.63 2.82 9.36 2.75C11.09 2.68 12.79 3.28 14.1 4.41C15.42 5.54 16.26 7.12 16.45 8.85C16.65 10.57 16.18 12.3 15.15 13.7L18.94 17.48C19.04 17.58 19.13 17.69 19.18 17.82C19.24 17.95 19.27 18.08 19.27 18.22C19.27 18.36 19.25 18.5 19.2 18.63C19.14 18.75 19.07 18.87 18.97 18.97C18.87 19.07 18.75 19.14 18.63 19.2C18.5 19.25 18.36 19.27 18.22 19.27C18.08 19.27 17.95 19.24 17.82 19.18C17.69 19.12 17.58 19.04 17.49 18.94L13.7 15.16ZM14.43 9.62C14.43 10.9 13.93 12.12 13.02 13.02C12.12 13.93 10.9 14.43 9.62 14.43C8.34 14.43 7.12 13.93 6.22 13.02C5.31 12.12 4.81 10.9 4.81 9.62C4.81 8.34 5.31 7.12 6.22 6.22C7.12 5.31 8.34 4.81 9.62 4.81C10.9 4.81 12.12 5.31 13.02 6.22C13.93 7.12 14.43 8.34 14.43 9.62Z" fill="#FFFFFF" fill-opacity="1.000000" fill-rule="evenodd"/>
	</g>
</svg>
