<svg width="40.000000" height="40.000000" viewBox="0 0 40 40" fill="none" xmlns="http://www.w3.org/2000/svg" xmlns:xlink="http://www.w3.org/1999/xlink">
	<desc>
			Created with Pixso.
	</desc>
	<defs>
		<clipPath id="clip1_23">
			<rect id="ri:twitter-fill" width="16.000000" height="16.000000" transform="translate(12.000000 12.000000)" fill="white" fill-opacity="0"/>
		</clipPath>
	</defs>
	<rect id="ri:twitter-fill" width="16.000000" height="16.000000" transform="translate(12.000000 12.000000)" fill="#FFFFFF" fill-opacity="0"/>
	<g clip-path="url(#clip1_23)">
		<path id="Vector" d="M26.8 15.77C26.29 15.99 25.76 16.14 25.2 16.2C25.78 15.86 26.22 15.31 26.43 14.66C25.88 14.99 25.28 15.22 24.66 15.34C24.24 14.89 23.68 14.59 23.08 14.49C22.47 14.39 21.85 14.49 21.31 14.78C20.76 15.07 20.33 15.53 20.08 16.09C19.83 16.65 19.77 17.28 19.91 17.88C18.8 17.83 17.71 17.54 16.72 17.04C15.73 16.53 14.86 15.83 14.16 14.97C13.91 15.39 13.78 15.88 13.78 16.37C13.78 17.34 14.28 18.19 15.02 18.69C14.58 18.68 14.15 18.56 13.76 18.34L13.76 18.38C13.76 19.02 13.98 19.64 14.39 20.14C14.8 20.64 15.37 20.98 16 21.11C15.59 21.22 15.15 21.24 14.74 21.16C14.91 21.71 15.26 22.2 15.73 22.54C16.2 22.89 16.76 23.08 17.34 23.09C16.76 23.55 16.1 23.89 15.39 24.08C14.68 24.28 13.94 24.34 13.21 24.25C14.49 25.07 15.97 25.5 17.49 25.5C22.62 25.5 25.42 21.25 25.42 17.57C25.42 17.45 25.42 17.33 25.41 17.21C25.96 16.81 26.43 16.33 26.8 15.77L26.8 15.77Z" fill="#FF7D01" fill-opacity="1.000000" fill-rule="nonzero"/>
	</g>
	<rect id="Frame 7" rx="19.500000" width="39.000000" height="39.000000" transform="translate(0.500000 0.500000)" stroke="#DDDDDD" stroke-opacity="1.000000" stroke-width="1.000000"/>
</svg>
