<svg width="32.000000" height="32.000000" viewBox="0 0 32 32" fill="none" xmlns="http://www.w3.org/2000/svg" xmlns:xlink="http://www.w3.org/1999/xlink">
	<desc>
			Created with Pixso.
	</desc>
	<defs>
		<clipPath id="clip1_3654">
			<rect id="ph:user-duotone" width="32.000000" height="32.000000" fill="white" fill-opacity="0"/>
		</clipPath>
	</defs>
	<rect id="ph:user-duotone" width="32.000000" height="32.000000" fill="#FFFFFF" fill-opacity="0"/>
	<g clip-path="url(#clip1_3654)">
		<g opacity="0.100000">
			<path id="Vector" d="M24 12C24 13.58 23.53 15.12 22.65 16.44C21.77 17.76 20.52 18.78 19.06 19.39C17.59 19.99 15.99 20.15 14.43 19.84C12.88 19.53 11.46 18.77 10.34 17.65C9.22 16.53 8.46 15.11 8.15 13.56C7.84 12 8 10.4 8.6 8.93C9.21 7.47 10.23 6.22 11.55 5.34C12.87 4.46 14.41 4 16 4C18.12 4 20.15 4.84 21.65 6.34C23.15 7.84 24 9.87 24 12Z" fill="#BBBBBB" fill-opacity="1.000000" fill-rule="nonzero"/>
		</g>
		<path id="Vector" d="M28.86 26.5C26.96 23.2 24.02 20.84 20.6 19.73C22.29 18.72 23.61 17.18 24.34 15.35C25.08 13.52 25.2 11.5 24.67 9.6C24.15 7.7 23.02 6.03 21.45 4.83C19.88 3.64 17.97 2.99 16 2.99C14.02 2.99 12.11 3.64 10.54 4.83C8.97 6.03 7.84 7.7 7.32 9.6C6.79 11.5 6.91 13.52 7.65 15.35C8.38 17.18 9.7 18.72 11.39 19.73C7.97 20.84 5.03 23.2 3.13 26.5C3.06 26.61 3.01 26.74 2.99 26.87C2.97 27 2.98 27.13 3.01 27.26C3.05 27.39 3.1 27.51 3.18 27.62C3.27 27.73 3.37 27.82 3.48 27.88C3.6 27.95 3.73 27.99 3.86 28.01C3.99 28.03 4.13 28.02 4.25 27.98C4.38 27.94 4.5 27.88 4.61 27.8C4.71 27.72 4.8 27.61 4.86 27.5C7.22 23.43 11.38 21 16 21C20.61 21 24.77 23.43 27.13 27.5C27.19 27.61 27.28 27.72 27.38 27.8C27.49 27.88 27.61 27.94 27.74 27.98C27.86 28.02 28 28.03 28.13 28.01C28.26 27.99 28.39 27.95 28.51 27.88C28.62 27.82 28.72 27.73 28.8 27.62C28.89 27.51 28.94 27.39 28.98 27.26C29.01 27.13 29.02 27 29 26.87C28.98 26.74 28.93 26.61 28.86 26.5ZM9 12C9 10.61 9.41 9.26 10.17 8.11C10.94 6.95 12.04 6.06 13.32 5.53C14.6 5 16 4.86 17.36 5.13C18.72 5.4 19.97 6.07 20.94 7.05C21.92 8.02 22.59 9.27 22.86 10.63C23.13 11.99 22.99 13.39 22.46 14.67C21.93 15.95 21.04 17.05 19.88 17.82C18.73 18.58 17.38 19 16 19C14.14 18.99 12.36 18.25 11.05 16.94C9.74 15.63 9 13.85 9 12Z" fill="#1B1B1B" fill-opacity="1.000000" fill-rule="nonzero"/>
	</g>
</svg>
