<svg width="40.000000" height="40.000000" viewBox="0 0 40 40" fill="none" xmlns="http://www.w3.org/2000/svg" xmlns:xlink="http://www.w3.org/1999/xlink">
	<desc>
			Created with Pixso.
	</desc>
	<defs>
		<clipPath id="clip1_26">
			<rect id="bi:youtube" width="16.000000" height="16.000000" transform="translate(12.000000 12.000000)" fill="white" fill-opacity="0"/>
		</clipPath>
	</defs>
	<rect id="bi:youtube" width="16.000000" height="16.000000" transform="translate(12.000000 12.000000)" fill="#FFFFFF" fill-opacity="0"/>
	<g clip-path="url(#clip1_26)">
		<path id="Vector" d="M20.05 13.99L20.14 13.99C20.96 14 25.12 14.03 26.25 14.33C26.58 14.42 26.89 14.6 27.14 14.85C27.39 15.1 27.57 15.41 27.66 15.75C27.76 16.13 27.83 16.63 27.88 17.15L27.89 17.26L27.91 17.52L27.92 17.62C27.99 18.53 27.99 19.39 27.99 19.58L27.99 19.65C27.99 19.85 27.98 20.76 27.91 21.71L27.9 21.82L27.9 21.92C27.85 22.49 27.77 23.06 27.66 23.48C27.57 23.82 27.39 24.13 27.14 24.38C26.89 24.63 26.58 24.81 26.25 24.9C25.09 25.21 20.68 25.23 20.07 25.23L19.92 25.23C19.61 25.23 18.34 25.23 17 25.18L16.83 25.17L16.74 25.17L16.57 25.16L16.4 25.16C15.29 25.11 14.23 25.03 13.74 24.9C13.4 24.81 13.09 24.63 12.85 24.38C12.6 24.13 12.42 23.82 12.33 23.48C12.22 23.06 12.14 22.49 12.09 21.92L12.09 21.82L12.08 21.71C12.03 21.03 12 20.35 12 19.67L12 19.55C12 19.34 12.01 18.59 12.06 17.77L12.07 17.67L12.07 17.62L12.08 17.52L12.1 17.26L12.11 17.15C12.16 16.63 12.23 16.13 12.33 15.75C12.42 15.41 12.6 15.1 12.85 14.85C13.09 14.6 13.4 14.42 13.74 14.33C14.23 14.2 15.29 14.12 16.4 14.07L16.57 14.06L16.74 14.06L16.83 14.05L17 14.05C17.95 14.02 18.9 14 19.85 14L20.05 13.99ZM18.4 17.2L18.4 22.02L22.55 19.61L18.4 17.2Z" fill="#FF7D01" fill-opacity="1.000000" fill-rule="nonzero"/>
	</g>
	<rect id="Frame 8" rx="19.500000" width="39.000000" height="39.000000" transform="translate(0.500000 0.500000)" stroke="#DDDDDD" stroke-opacity="1.000000" stroke-width="1.000000"/>
</svg>
